<svg width="262" height="227" viewBox="0 0 262 227" fill="none" xmlns="http://www.w3.org/2000/svg">
<g clip-path="url(#clip0_1_8)">
<path d="M161.101 0L130.876 52.351L100.652 0H0L130.877 226.688L261.754 0H161.101Z" fill="#41B883"/>
<path d="M161.101 0L130.876 52.351L100.652 0H52.351L130.877 136.01L209.403 0H161.101Z" fill="#34495E"/>
<ellipse cx="131" cy="88" rx="82" ry="78" fill="white" fill-opacity="0.7"/>
<path d="M130.449 138.079L109.369 127.866L109.393 127.855L109.387 127.852L86.988 138.703L130.465 159.764L174.012 138.75L151.533 127.69L130.449 138.079Z" fill="url(#paint0_linear_1_8)" stroke="url(#paint1_linear_1_8)"/>
<path d="M87.0415 138.776V117.072L108.596 106.631L130.768 117.492L87.0415 138.776Z" fill="url(#paint2_radial_1_8)" stroke="url(#paint3_radial_1_8)"/>
<path d="M154.37 49.4531V83.7707L130.271 95.4384L152.433 106.399L174.01 95.9611V37.2638L154.37 49.4531Z" fill="url(#paint4_radial_1_8)" stroke="url(#paint5_radial_1_8)"/>
<path d="M174.012 138.757V117.052L106.685 83.7502V49.4326L87.0444 37.2434V95.9406L174.012 138.757Z" fill="url(#paint6_radial_1_8)" stroke="url(#paint7_radial_1_8)"/>
<path d="M106.625 49.3999V49.3929L130.464 37.8449L154.305 49.3929L173.92 37.2189L130.448 16.1592L86.988 37.2124V37.2311L106.608 49.4081L106.625 49.3999Z" fill="url(#paint8_linear_1_8)" stroke="url(#paint9_linear_1_8)"/>
</g>
<defs>
<linearGradient id="paint0_linear_1_8" x1="130.5" y1="14.4908" x2="130.5" y2="158.711" gradientUnits="userSpaceOnUse">
<stop stop-color="#002E3B"/>
<stop offset="1" stop-color="#002639"/>
</linearGradient>
<linearGradient id="paint1_linear_1_8" x1="130.5" y1="14.4908" x2="130.5" y2="158.711" gradientUnits="userSpaceOnUse">
<stop stop-color="#002E3B"/>
<stop offset="1" stop-color="#002639"/>
</linearGradient>
<radialGradient id="paint2_radial_1_8" cx="0" cy="0" r="1" gradientUnits="userSpaceOnUse" gradientTransform="translate(94.2228 152.598) scale(129.241 128.362)">
<stop stop-color="#00BC85"/>
<stop offset="1" stop-color="#149D91"/>
</radialGradient>
<radialGradient id="paint3_radial_1_8" cx="0" cy="0" r="1" gradientUnits="userSpaceOnUse" gradientTransform="translate(94.2228 152.598) scale(129.241 128.362)">
<stop stop-color="#00BC85"/>
<stop offset="1" stop-color="#149D91"/>
</radialGradient>
<radialGradient id="paint4_radial_1_8" cx="0" cy="0" r="1" gradientUnits="userSpaceOnUse" gradientTransform="translate(137.455 7.53565) scale(156.148 155.086)">
<stop stop-color="#00BC85"/>
<stop offset="1" stop-color="#149D91"/>
</radialGradient>
<radialGradient id="paint5_radial_1_8" cx="0" cy="0" r="1" gradientUnits="userSpaceOnUse" gradientTransform="translate(137.455 7.53565) scale(156.148 155.086)">
<stop stop-color="#00BC85"/>
<stop offset="1" stop-color="#149D91"/>
</radialGradient>
<radialGradient id="paint6_radial_1_8" cx="0" cy="0" r="1" gradientUnits="userSpaceOnUse" gradientTransform="translate(97.017 -3.82688) scale(298.463 296.433)">
<stop stop-color="#004473"/>
<stop offset="1" stop-color="#00345F"/>
</radialGradient>
<radialGradient id="paint7_radial_1_8" cx="0" cy="0" r="1" gradientUnits="userSpaceOnUse" gradientTransform="translate(97.017 -3.82688) scale(298.463 296.433)">
<stop stop-color="#004473"/>
<stop offset="1" stop-color="#00345F"/>
</radialGradient>
<linearGradient id="paint8_linear_1_8" x1="130.454" y1="15.2257" x2="130.454" y2="158.717" gradientUnits="userSpaceOnUse">
<stop stop-color="#002E3B"/>
<stop offset="1" stop-color="#002639"/>
</linearGradient>
<linearGradient id="paint9_linear_1_8" x1="130.454" y1="15.2257" x2="130.454" y2="158.717" gradientUnits="userSpaceOnUse">
<stop stop-color="#002E3B"/>
<stop offset="1" stop-color="#002639"/>
</linearGradient>
<clipPath id="clip0_1_8">
<rect width="261.76" height="226.69" fill="white"/>
</clipPath>
</defs>
</svg>
